<mxfile host="Electron" modified="2024-01-11T11:06:17.195Z" agent="Mozilla/5.0 (Macintosh; Intel Mac OS X 10_15_7) AppleWebKit/537.36 (KHTML, like Gecko) draw.io/21.6.5 Chrome/114.0.5735.243 Electron/25.3.1 Safari/537.36" etag="YiZTGT6K8mZ-I8KbDRg1" version="21.6.5" type="device">
  <diagram name="第 1 页" id="mpBkgHy50nMbDA8IHbmv">
    <mxGraphModel dx="1395" dy="654" grid="1" gridSize="10" guides="1" tooltips="1" connect="1" arrows="1" fold="1" page="1" pageScale="1" pageWidth="827" pageHeight="1169" math="0" shadow="0">
      <root>
        <mxCell id="0" />
        <mxCell id="1" parent="0" />
        <mxCell id="2dqEXR7SiCgwe58UnSl6-7" style="edgeStyle=orthogonalEdgeStyle;rounded=0;orthogonalLoop=1;jettySize=auto;html=1;entryX=0;entryY=0.5;entryDx=0;entryDy=0;exitX=0.5;exitY=1;exitDx=0;exitDy=0;" edge="1" parent="1" source="2dqEXR7SiCgwe58UnSl6-1" target="2dqEXR7SiCgwe58UnSl6-3">
          <mxGeometry relative="1" as="geometry" />
        </mxCell>
        <mxCell id="2dqEXR7SiCgwe58UnSl6-8" value="&lt;font style=&quot;font-size: 12px;&quot;&gt;CRUD&lt;/font&gt;" style="edgeLabel;html=1;align=center;verticalAlign=middle;resizable=0;points=[];" vertex="1" connectable="0" parent="2dqEXR7SiCgwe58UnSl6-7">
          <mxGeometry x="0.0327" y="4" relative="1" as="geometry">
            <mxPoint x="-13" y="-36" as="offset" />
          </mxGeometry>
        </mxCell>
        <mxCell id="2dqEXR7SiCgwe58UnSl6-9" style="edgeStyle=orthogonalEdgeStyle;rounded=0;orthogonalLoop=1;jettySize=auto;html=1;entryX=0;entryY=0.5;entryDx=0;entryDy=0;" edge="1" parent="1" source="2dqEXR7SiCgwe58UnSl6-1" target="2dqEXR7SiCgwe58UnSl6-2">
          <mxGeometry relative="1" as="geometry" />
        </mxCell>
        <mxCell id="2dqEXR7SiCgwe58UnSl6-1" value="調度器" style="ellipse;whiteSpace=wrap;html=1;" vertex="1" parent="1">
          <mxGeometry x="280" y="320" width="120" height="80" as="geometry" />
        </mxCell>
        <mxCell id="2dqEXR7SiCgwe58UnSl6-11" style="edgeStyle=orthogonalEdgeStyle;rounded=0;orthogonalLoop=1;jettySize=auto;html=1;entryX=0;entryY=0.5;entryDx=0;entryDy=0;" edge="1" parent="1" source="2dqEXR7SiCgwe58UnSl6-2" target="2dqEXR7SiCgwe58UnSl6-4">
          <mxGeometry relative="1" as="geometry" />
        </mxCell>
        <mxCell id="2dqEXR7SiCgwe58UnSl6-12" value="&lt;font style=&quot;font-size: 12px;&quot;&gt;間隔輪詢&lt;/font&gt;" style="edgeLabel;html=1;align=center;verticalAlign=middle;resizable=0;points=[];" vertex="1" connectable="0" parent="2dqEXR7SiCgwe58UnSl6-11">
          <mxGeometry x="-0.2941" y="-1" relative="1" as="geometry">
            <mxPoint x="12" y="-1" as="offset" />
          </mxGeometry>
        </mxCell>
        <mxCell id="2dqEXR7SiCgwe58UnSl6-2" value="處發器" style="ellipse;whiteSpace=wrap;html=1;" vertex="1" parent="1">
          <mxGeometry x="600" y="320" width="120" height="80" as="geometry" />
        </mxCell>
        <mxCell id="2dqEXR7SiCgwe58UnSl6-10" style="edgeStyle=orthogonalEdgeStyle;rounded=0;orthogonalLoop=1;jettySize=auto;html=1;" edge="1" parent="1" source="2dqEXR7SiCgwe58UnSl6-3">
          <mxGeometry relative="1" as="geometry">
            <mxPoint x="500" y="359.9999999999998" as="targetPoint" />
          </mxGeometry>
        </mxCell>
        <mxCell id="2dqEXR7SiCgwe58UnSl6-3" value="任務儲存器" style="ellipse;whiteSpace=wrap;html=1;" vertex="1" parent="1">
          <mxGeometry x="440" y="440" width="120" height="80" as="geometry" />
        </mxCell>
        <mxCell id="2dqEXR7SiCgwe58UnSl6-13" style="edgeStyle=orthogonalEdgeStyle;rounded=0;orthogonalLoop=1;jettySize=auto;html=1;entryX=0.5;entryY=1;entryDx=0;entryDy=0;exitX=0.5;exitY=1;exitDx=0;exitDy=0;" edge="1" parent="1" source="2dqEXR7SiCgwe58UnSl6-4" target="2dqEXR7SiCgwe58UnSl6-2">
          <mxGeometry relative="1" as="geometry">
            <Array as="points">
              <mxPoint x="860" y="440" />
              <mxPoint x="660" y="440" />
            </Array>
          </mxGeometry>
        </mxCell>
        <mxCell id="2dqEXR7SiCgwe58UnSl6-14" value="&lt;font style=&quot;font-size: 12px;&quot;&gt;否&lt;/font&gt;" style="edgeLabel;html=1;align=center;verticalAlign=middle;resizable=0;points=[];" vertex="1" connectable="0" parent="2dqEXR7SiCgwe58UnSl6-13">
          <mxGeometry x="-0.0235" y="1" relative="1" as="geometry">
            <mxPoint x="-4" y="-1" as="offset" />
          </mxGeometry>
        </mxCell>
        <mxCell id="2dqEXR7SiCgwe58UnSl6-15" style="edgeStyle=orthogonalEdgeStyle;rounded=0;orthogonalLoop=1;jettySize=auto;html=1;entryX=0;entryY=0.5;entryDx=0;entryDy=0;" edge="1" parent="1" source="2dqEXR7SiCgwe58UnSl6-4" target="2dqEXR7SiCgwe58UnSl6-5">
          <mxGeometry relative="1" as="geometry" />
        </mxCell>
        <mxCell id="2dqEXR7SiCgwe58UnSl6-16" value="&lt;font style=&quot;font-size: 12px;&quot;&gt;是&lt;/font&gt;" style="edgeLabel;html=1;align=center;verticalAlign=middle;resizable=0;points=[];" vertex="1" connectable="0" parent="2dqEXR7SiCgwe58UnSl6-15">
          <mxGeometry x="-0.1176" y="-4" relative="1" as="geometry">
            <mxPoint x="5" y="-4" as="offset" />
          </mxGeometry>
        </mxCell>
        <mxCell id="2dqEXR7SiCgwe58UnSl6-4" value="是否滿足運行條件" style="rhombus;whiteSpace=wrap;html=1;" vertex="1" parent="1">
          <mxGeometry x="800" y="320" width="120" height="80" as="geometry" />
        </mxCell>
        <mxCell id="2dqEXR7SiCgwe58UnSl6-18" style="edgeStyle=orthogonalEdgeStyle;rounded=0;orthogonalLoop=1;jettySize=auto;html=1;entryX=0.5;entryY=0;entryDx=0;entryDy=0;" edge="1" parent="1" source="2dqEXR7SiCgwe58UnSl6-5" target="2dqEXR7SiCgwe58UnSl6-1">
          <mxGeometry relative="1" as="geometry">
            <Array as="points">
              <mxPoint x="1060" y="280" />
              <mxPoint x="340" y="280" />
            </Array>
          </mxGeometry>
        </mxCell>
        <mxCell id="2dqEXR7SiCgwe58UnSl6-19" value="&lt;font style=&quot;font-size: 12px;&quot;&gt;返回運行結果&lt;/font&gt;" style="edgeLabel;html=1;align=center;verticalAlign=middle;resizable=0;points=[];" vertex="1" connectable="0" parent="2dqEXR7SiCgwe58UnSl6-18">
          <mxGeometry x="-0.0261" y="-2" relative="1" as="geometry">
            <mxPoint x="-11" as="offset" />
          </mxGeometry>
        </mxCell>
        <mxCell id="2dqEXR7SiCgwe58UnSl6-5" value="執行器" style="ellipse;whiteSpace=wrap;html=1;" vertex="1" parent="1">
          <mxGeometry x="1000" y="320" width="120" height="80" as="geometry" />
        </mxCell>
      </root>
    </mxGraphModel>
  </diagram>
</mxfile>
